# xmcd CD database file
#
# Track frame offsets:
#	150
#	12396
#	25513
#	39488
#	52776
#	65617
#	78660
#	91302
#	105834
#	120241
#	132502
#	144196
#	156741
#	170517
#	181631
#	194468
#	206164
#	217494
#	228978
#	240018
#	251602
#	263506
#	274303
#	285328
#	298290
#	309462
#
# Disc length: 4281 seconds
#
# Revision: 2
# Processed by: cddbd v1.5.2PL0 Copyright (c) Steve Scherf et al.
# Submitted via: CDex 1.51
#
DISCID=6e10b71a
DTITLE=Tex Ritter - Sing, Cowboy, Sing
DYEAR=2001
DGENRE=Country
TTITLE0=Sing, Cowboy, Sing
TTITLE1=Sam Hall
TTITLE2=Get Along, Little Doggies
TTITLE3=I'm A Do Right Cowboy
TTITLE4=Lady Killin' Cowboy
TTITLE5=Bill The Bar Fly
TTITLE6=Nobody's Darling But Mine
TTITLE7=Take Me Back To My Boots And Saddle
TTITLE8=The Oregon Trail
TTITLE9=A Melody From The Sky
TTITLE10=The Hills Of Old Wyoming
TTITLE11=We'll Rest At The End Of The Trail
TTITLE12=High, Wide And Handsome
TTITLE13=Headin' For The Rio Grande
TTITLE14=Out On The Lone Prarie
TTITLE15=Arizona Days
TTITLE16=Jailhouse Lament
TTITLE17=I'm Hittin' The Trail For Home
TTITLE18=I'm A Natural Born Cowboy
TTITLE19=Ride, Ride, Ride
TTITLE20=Ridin' Down The Trail To Albuquerque
TTITLE21=Down The Colorado Trail
TTITLE22=When It's Lamplighting Time In The Valley
TTITLE23=Singing In The Saddle
TTITLE24=Al Viva Tequila
TTITLE25=Sundown On The Prairie
EXTD=YEAR: 2001
EXTT0=
EXTT1=
EXTT2=
EXTT3=
EXTT4=
EXTT5=
EXTT6=
EXTT7=
EXTT8=
EXTT9=
EXTT10=
EXTT11=
EXTT12=
EXTT13=
EXTT14=
EXTT15=
EXTT16=
EXTT17=
EXTT18=
EXTT19=
EXTT20=
EXTT21=
EXTT22=
EXTT23=
EXTT24=
EXTT25=
PLAYORDER=
